<svg xmlns="http://www.w3.org/2000/svg" xmlns:xlink="http://www.w3.org/1999/xlink" width="297.674" height="81.715" viewBox="0 0 297.674 81.715">
  <defs>
    <clipPath id="clip-path">
      <rect id="Rectangle_9" data-name="Rectangle 9" width="297.674" height="81.715" transform="translate(0 0)" fill="none"/>
    </clipPath>
  </defs>
  <g id="Group_10" data-name="Group 10" transform="translate(0 0)">
    <g id="Group_9" data-name="Group 9" clip-path="url(#clip-path)">
      <path id="Path_18" data-name="Path 18" d="M291.107,75.149H139.372L150.236,6.566H291.107ZM126.535,67.305,124.5,57.139c-2.372-11.82-2.924-12.766-6.508-12.766V67.305h-8.55V12.931h12.3c7.722,0,12.135,6.305,12.135,15.209,0,6.146-1.876,10.007-6.344,12.766,3.365,2.68,4.689,14.894,7.888,26.4Zm-20.469,0H83.616V12.931H105.57v9.378h-13.4V35h12.466v9.377H92.166V57.928h13.9Zm-24.717-45h-8.6v45h-8.55v-45h-8.6V12.931H81.349Zm-28.136,45H45.767l-10.7-32.073h-.11V67.305H26.9V12.931h7.943l10.2,30.734h.111V12.931h8.052Zm-31.61,0H13.054V12.931H21.6ZM0,81.715H297.674V0H0Z" fill="#001f45"/>
      <path id="Path_19" data-name="Path 19" d="M120.579,22.308h-2.592V34.995h2.7c2.869,0,4.634-2.207,4.634-6.54,0-4.256-1.6-6.147-4.744-6.147" fill="#001f45"/>
      <path id="Path_20" data-name="Path 20" d="M161.671,53.131c0,2.678-1.434,4.57-3.474,4.57-2.262,0-4.359-1.5-7.943-5.753V63.69c3.53,2.995,6.287,4.256,9.211,4.256,6.233,0,10.921-6.541,10.921-15.209,0-12.845-12.189-20.726-12.189-27.188a3.451,3.451,0,0,1,3.474-3.782c1.876,0,3.53.867,7.281,3.94V15.463c-2.924-2.285-5.515-3.31-8.218-3.31-6.123,0-10.811,6.068-10.811,13.869,0,13.16,11.748,19.149,11.748,27.109" fill="#001f45"/>
      <path id="Path_21" data-name="Path 21" d="M182.416,22.24h2.758c3.7,0,4.744,3.467,4.744,6.776,0,4.02-1.1,6.7-5.02,6.7h-2.482Zm0,22.853H186c10.479,0,12.464-10.008,12.464-15.919,0-7.722-3.64-16.312-12.41-16.312h-12.19V67.237h8.55Z" fill="#001f45"/>
      <path id="Path_22" data-name="Path 22" d="M214.744,22.791c5.075,0,6.122,7.8,6.122,17.259,0,13-2.151,17.257-6.122,17.257-4.687,0-6.122-6.462-6.122-17.257,0-10.718,1.489-17.259,6.122-17.259m0,45.155c6.4,0,14.838-6.62,14.838-27.818,0-20.41-7.832-27.975-14.838-27.975-7.336,0-14.836,8.9-14.836,27.423,0,20.332,7.555,28.37,14.836,28.37" fill="#001f45"/>
      <path id="Path_23" data-name="Path 23" d="M241.611,22.239H244.2c3.144,0,4.744,1.891,4.744,6.147,0,4.334-1.766,6.541-4.633,6.541h-2.7Zm0,22.065c3.585,0,4.136.946,6.509,12.766l2.04,10.166h8.88c-3.2-11.505-4.523-23.72-7.887-26.4,4.469-2.759,6.343-6.62,6.343-12.766,0-8.9-4.412-15.209-12.134-15.209h-12.3V67.236h8.549Z" fill="#001f45"/>
      <path id="Path_24" data-name="Path 24" d="M267.045,67.236h8.549v-45h8.6V12.863H258.441v9.377h8.6Z" fill="#001f45"/>
    </g>
  </g>
</svg>
