<svg xmlns="http://www.w3.org/2000/svg" width="684.073" height="222.562" viewBox="0 0 684.073 222.562">
  <g id="Group_14" data-name="Group 14" transform="translate(-472.896 -1360.95)">
    <rect id="Rectangle_1" data-name="Rectangle 1" width="29.887" height="138.311" transform="translate(660.632 1402.204)" fill="#fff"/>
    <path id="Path_1" data-name="Path 1" d="M214.249,36.717v79.658a89.672,89.672,0,0,1-.825,12.83,56.589,56.589,0,0,1-2.314,10,31.467,31.467,0,0,1-6.191,10.246,41.675,41.675,0,0,1-10.155,8.251,53.421,53.421,0,0,1-13.461,5.5,63.083,63.083,0,0,1-16.259,2,62.455,62.455,0,0,1-18.163-2.5,49.307,49.307,0,0,1-14.447-6.914,40.048,40.048,0,0,1-10.155-10.333,34.419,34.419,0,0,1-5.285-12.916h33.684q3.131,8.5,14.2,8.5,9.408,0,14.447-5.334t5.037-14.83v-8.165A49.721,49.721,0,0,1,178,117.955a36.119,36.119,0,0,1-6.191,3.419,29.127,29.127,0,0,1-6.606,1.914,45.928,45.928,0,0,1-7.593.582,42.973,42.973,0,0,1-16.68-3.166,39.192,39.192,0,0,1-13.126-8.828,39.6,39.6,0,0,1-8.585-13.585,48.415,48.415,0,0,1-3.052-17.581,49.573,49.573,0,0,1,3.3-18.249,47.066,47.066,0,0,1,9-14.663,41.314,41.314,0,0,1,13.541-9.831A40.6,40.6,0,0,1,159.1,34.387a32.7,32.7,0,0,1,25.266,11.33v-9ZM147.21,79.045a20.062,20.062,0,0,0,5.533,14,18.084,18.084,0,0,0,6.11,4.163,19.438,19.438,0,0,0,7.674,1.5,19.047,19.047,0,0,0,7.512-1.5,18.137,18.137,0,0,0,6.11-4.163,21.413,21.413,0,0,0,4.131-6.25,19.311,19.311,0,0,0,0-15.251,20.958,20.958,0,0,0-4.212-6.164,19.088,19.088,0,0,0-6.191-4.163,18.649,18.649,0,0,0-7.35-1.5A17.743,17.743,0,0,0,159.1,61.3a21.39,21.39,0,0,0-6.1,4.169,19.633,19.633,0,0,0-4.212,6.078,18.141,18.141,0,0,0-1.569,7.5" transform="translate(578.314 1418.311)" fill="#fff"/>
    <path id="Path_2" data-name="Path 2" d="M134.447,79.392a41.89,41.89,0,0,1,3.8-17.748,43.562,43.562,0,0,1,10.57-14.329,50.2,50.2,0,0,1,16.1-9.583,57.672,57.672,0,0,1,20.39-3.5,58.456,58.456,0,0,1,20.229,3.414,50.109,50.109,0,0,1,16.184,9.5,42.628,42.628,0,0,1,10.646,14.5,44.731,44.731,0,0,1,3.8,18.584A43.527,43.527,0,0,1,221.628,113.3a47.5,47.5,0,0,1-16.265,9.416,61.651,61.651,0,0,1-20.558,3.333,58.988,58.988,0,0,1-20.142-3.333,46.449,46.449,0,0,1-15.936-9.5,44.067,44.067,0,0,1-10.484-14.749,46.593,46.593,0,0,1-3.8-19.08m31.537.334a19.518,19.518,0,0,0,1.569,7.917,21.2,21.2,0,0,0,4.125,6.245,18.074,18.074,0,0,0,6.11,4.169,19.571,19.571,0,0,0,15.025,0,18.073,18.073,0,0,0,6.11-4.169,21.318,21.318,0,0,0,4.131-6.245,19.192,19.192,0,0,0,1.564-7.75,18.77,18.77,0,0,0-1.564-7.582,21.416,21.416,0,0,0-4.131-6.25,18.136,18.136,0,0,0-6.11-4.163,19.571,19.571,0,0,0-15.025,0,18.137,18.137,0,0,0-6.11,4.163,21.665,21.665,0,0,0-4.125,6.164,18.14,18.14,0,0,0-1.569,7.5" transform="translate(658.607 1417.63)" fill="#fff"/>
    <path id="Path_3" data-name="Path 3" d="M225.277,55.037H186.308V76.032h35.5V103.7h-35.5V153.02H153.951V27.372h71.326Z" transform="translate(744.285 1387.494)" fill="#c5980d"/>
    <path id="Path_4" data-name="Path 4" d="M235.04,36.989h30.049v85.488H235.04v-9.5q-9.578,12.166-25.923,12.166a41.78,41.78,0,0,1-17.009-3.419,40.978,40.978,0,0,1-13.536-9.578,44.25,44.25,0,0,1-9-14.5,49.962,49.962,0,0,1-3.22-18.163,48.533,48.533,0,0,1,3.139-17.414,44.653,44.653,0,0,1,8.753-14.415,41.212,41.212,0,0,1,13.374-9.75,40.528,40.528,0,0,1,17.171-3.581q15.847,0,26.252,11.163Zm-37.648,42.5a20,20,0,0,0,1.488,7.75,19.788,19.788,0,0,0,4.045,6.245,18.021,18.021,0,0,0,6.11,4.169,19.446,19.446,0,0,0,7.679,1.5,19.04,19.04,0,0,0,7.507-1.5,18.072,18.072,0,0,0,6.11-4.169,21.419,21.419,0,0,0,4.131-6.164,18.1,18.1,0,0,0,1.569-7.5,18.684,18.684,0,0,0-1.569-7.582,21.2,21.2,0,0,0-4.131-6.25,18.228,18.228,0,0,0-6.11-4.169,19.135,19.135,0,0,0-7.507-1.5,19.541,19.541,0,0,0-7.679,1.5,18.176,18.176,0,0,0-6.11,4.169,20.459,20.459,0,0,0-4.045,6.083,18.344,18.344,0,0,0-1.488,7.415" transform="translate(798.756 1418.038)" fill="#c5980d"/>
    <path id="Path_5" data-name="Path 5" d="M185.364,36.313h29.887V47.147q6.107-7.507,12.382-10.085a38.466,38.466,0,0,1,14.7-2.583A36.468,36.468,0,0,1,257.6,37.4a30.456,30.456,0,0,1,10.813,8.251,23.752,23.752,0,0,1,4.956,9.664,50.857,50.857,0,0,1,1.321,12.166V121.8H244.8V78.641a47.05,47.05,0,0,0-.906-10.252,12.8,12.8,0,0,0-3.219-6.245,11.408,11.408,0,0,0-4.46-2.837,16.457,16.457,0,0,0-5.28-.83q-7.6,0-11.643,4.584t-4.045,13.078V121.8H185.364Z" transform="translate(882.278 1418.715)" fill="#c5980d"/>
    <path id="Path_6" data-name="Path 6" d="M224.015,196.94H254L206.989,17.374H177.863L75.08,196.94h31.9l9.944-17.343h45.613L178.2,151.624H132.956l4.454-7.76h45.575l15.655-27.973H153.449l34.336-59.882Z" transform="translate(397.816 1343.576)" fill="#fff"/>
  </g>
</svg>
