<svg id="Group_11" data-name="Group 11" xmlns="http://www.w3.org/2000/svg" xmlns:xlink="http://www.w3.org/1999/xlink" width="358.046" height="171.819" viewBox="0 0 358.046 171.819">
  <defs>
    <clipPath id="clip-path">
      <rect id="Rectangle_8" data-name="Rectangle 8" width="358.046" height="171.819" fill="#fff"/>
    </clipPath>
  </defs>
  <rect id="Rectangle_7" data-name="Rectangle 7" width="13.925" height="63.854" transform="translate(87.476 88.116)" fill="#fff"/>
  <g id="Group_7" data-name="Group 7">
    <g id="Group_6" data-name="Group 6" clip-path="url(#clip-path)">
      <path id="Path_9" data-name="Path 9" d="M147.4,112.5v36.774a41.244,41.244,0,0,1-.384,5.924,25.588,25.588,0,0,1-1.078,4.616,14.507,14.507,0,0,1-2.884,4.731,19.416,19.416,0,0,1-4.732,3.809,25.085,25.085,0,0,1-6.269,2.539,29.68,29.68,0,0,1-7.578.922,29.334,29.334,0,0,1-8.463-1.154,23.01,23.01,0,0,1-6.732-3.192,18.57,18.57,0,0,1-4.731-4.77,15.8,15.8,0,0,1-2.462-5.963h15.694q1.461,3.925,6.616,3.924a8.863,8.863,0,0,0,6.732-2.462,9.523,9.523,0,0,0,2.347-6.846v-3.77a23.385,23.385,0,0,1-2.962,2.423,16.856,16.856,0,0,1-2.885,1.577,13.84,13.84,0,0,1-3.077.885,21.762,21.762,0,0,1-3.539.269,20.169,20.169,0,0,1-7.771-1.462,17.952,17.952,0,0,1-10.117-10.347,22.191,22.191,0,0,1-1.423-8.116,22.657,22.657,0,0,1,1.539-8.425,21.678,21.678,0,0,1,4.193-6.77,19.121,19.121,0,0,1,14.271-6.193,15.3,15.3,0,0,1,11.771,5.231V112.5Zm-31.234,19.541a9.207,9.207,0,0,0,2.577,6.463,8.455,8.455,0,0,0,2.847,1.923,9.152,9.152,0,0,0,3.577.692,8.972,8.972,0,0,0,3.5-.692,8.485,8.485,0,0,0,2.847-1.923,9.783,9.783,0,0,0,1.923-2.886,8.838,8.838,0,0,0,0-7.039,9.626,9.626,0,0,0-1.961-2.847,8.912,8.912,0,0,0-2.886-1.922,8.781,8.781,0,0,0-3.423-.693,8.3,8.3,0,0,0-3.462.731,9.974,9.974,0,0,0-2.847,1.923,9.083,9.083,0,0,0-1.962,2.808,8.292,8.292,0,0,0-.73,3.462" fill="#fff"/>
      <path id="Path_10" data-name="Path 10" d="M147.635,131.892A19.22,19.22,0,0,1,149.4,123.7a20.159,20.159,0,0,1,4.924-6.616,23.449,23.449,0,0,1,7.5-4.423,27.07,27.07,0,0,1,9.5-1.616,27.44,27.44,0,0,1,9.424,1.577A23.363,23.363,0,0,1,188.3,117a19.711,19.711,0,0,1,4.961,6.692,20.475,20.475,0,0,1,1.769,8.578,20.1,20.1,0,0,1-1.807,8.579,20.371,20.371,0,0,1-4.962,6.693,22.23,22.23,0,0,1-7.579,4.347,28.989,28.989,0,0,1-9.578,1.539,27.741,27.741,0,0,1-9.386-1.539,21.667,21.667,0,0,1-7.424-4.385A20.384,20.384,0,0,1,149.4,140.7a21.373,21.373,0,0,1-1.769-8.808m14.694.153a8.909,8.909,0,0,0,.732,3.654,9.727,9.727,0,0,0,1.923,2.885,8.453,8.453,0,0,0,2.847,1.924,9.2,9.2,0,0,0,7,0,8.472,8.472,0,0,0,2.847-1.924A9.743,9.743,0,0,0,179.6,135.7a8.721,8.721,0,0,0,.733-3.577,8.545,8.545,0,0,0-.733-3.5,9.821,9.821,0,0,0-1.922-2.885,8.467,8.467,0,0,0-2.847-1.922,9.185,9.185,0,0,0-7,0,8.448,8.448,0,0,0-2.847,1.922,9.94,9.94,0,0,0-1.923,2.847,8.278,8.278,0,0,0-.732,3.462" fill="#fff"/>
      <path id="Path_11" data-name="Path 11" d="M195.334,112.5h13.925v6.463a15.992,15.992,0,0,1,5.463-5.424,14.684,14.684,0,0,1,7.539-1.886h1.192a8.466,8.466,0,0,1,1.5.155v13.309a13.229,13.229,0,0,0-6-1.385q-4.847,0-7.27,2.885t-2.424,8.424v16.926H195.334Z" fill="#fff"/>
      <path id="Path_12" data-name="Path 12" d="M254.418,112.5h14v39.467h-14v-4.385A14.611,14.611,0,0,1,242.34,153.2a19.612,19.612,0,0,1-7.925-1.577,19.079,19.079,0,0,1-6.309-4.423,20.406,20.406,0,0,1-4.192-6.693,22.89,22.89,0,0,1-1.5-8.386,22.215,22.215,0,0,1,1.462-8.04,20.667,20.667,0,0,1,4.077-6.654,19.219,19.219,0,0,1,6.232-4.5,19.014,19.014,0,0,1,8-1.654,16.076,16.076,0,0,1,12.232,5.155Zm-17.541,19.618a9.2,9.2,0,0,0,2.577,6.462,8.453,8.453,0,0,0,2.847,1.924,9.161,9.161,0,0,0,3.578.692,8.972,8.972,0,0,0,3.5-.692,8.482,8.482,0,0,0,2.847-1.924,9.916,9.916,0,0,0,1.922-2.847,8.283,8.283,0,0,0,.732-3.462,8.559,8.559,0,0,0-.732-3.5,9.777,9.777,0,0,0-1.922-2.884,8.482,8.482,0,0,0-2.847-1.924,8.991,8.991,0,0,0-3.5-.693,9.179,9.179,0,0,0-3.578.693,8.453,8.453,0,0,0-2.847,1.924,9.48,9.48,0,0,0-1.885,2.807,8.435,8.435,0,0,0-.692,3.424" fill="#fff"/>
      <path id="Path_13" data-name="Path 13" d="M270.189,112.5h13.925v5a15.22,15.22,0,0,1,5.77-4.654,18.052,18.052,0,0,1,6.847-1.194A17.126,17.126,0,0,1,303.847,113a14.179,14.179,0,0,1,5.039,3.809,10.961,10.961,0,0,1,2.309,4.462,23.253,23.253,0,0,1,.615,5.616v25.08H297.885V132.045a21.468,21.468,0,0,0-.423-4.731,5.884,5.884,0,0,0-1.5-2.885,5.29,5.29,0,0,0-2.078-1.308,7.713,7.713,0,0,0-2.461-.385A6.881,6.881,0,0,0,286,124.852a8.778,8.778,0,0,0-1.886,6.039v21.08H270.189Z" fill="#fff"/>
      <path id="Path_14" data-name="Path 14" d="M344.044,88.116h14v63.855h-14v-4.385a14.611,14.611,0,0,1-12.078,5.615,19.2,19.2,0,0,1-7.925-1.615,19.592,19.592,0,0,1-6.309-4.462,20.416,20.416,0,0,1-4.192-6.693,23.6,23.6,0,0,1-.077-16.349,20.132,20.132,0,0,1,4.039-6.654,19.117,19.117,0,0,1,14.31-6.155,16.076,16.076,0,0,1,12.232,5.155ZM326.5,132.122a9.2,9.2,0,0,0,2.577,6.462,8.453,8.453,0,0,0,2.847,1.924,9.161,9.161,0,0,0,3.578.692,8.972,8.972,0,0,0,3.5-.692,8.482,8.482,0,0,0,2.847-1.924,9.916,9.916,0,0,0,1.922-2.847,8.283,8.283,0,0,0,.732-3.462,8.559,8.559,0,0,0-.732-3.5,9.777,9.777,0,0,0-1.922-2.884,8.482,8.482,0,0,0-2.847-1.924,9.187,9.187,0,0,0-7,0,8.452,8.452,0,0,0-2.847,1.924,10.083,10.083,0,0,0-1.923,2.807,8.034,8.034,0,0,0-.731,3.424" fill="#fff"/>
      <path id="Path_15" data-name="Path 15" d="M0,151.971H14.862L52.514,86.907l16.881,65.064H83.366l-21.9-82.9H47.89Z" fill="#fff"/>
      <path id="Path_16" data-name="Path 16" d="M28.7,151.105,64.56,89.169H78.181L42.617,151.105Z" fill="#fff"/>
      <path id="Path_17" data-name="Path 17" d="M189.671,0a48.815,48.815,0,1,0,48.815,48.816A48.816,48.816,0,0,0,189.671,0m20.15,77.679-6.495-25.035-14,24.373h-10.65l21.385-36.935L196.9,27.893,168.093,77.679H156.721l36.644-63.433h10.386l4.063,15.378h8.73l-5.979,10.412,9.947,37.643Z" fill="#fff"/>
    </g>
  </g>
</svg>
