<svg xmlns="http://www.w3.org/2000/svg" width="371.665" height="371.665" viewBox="0 0 371.665 371.665">
  <g id="Group_15" data-name="Group 15" transform="translate(128.969 -1940.253)" style="isolation: isolate">
    <path id="Path_7" data-name="Path 7" d="M185.832,371.665C83.363,371.665,0,288.3,0,185.832S83.363,0,185.832,0,371.665,83.363,371.665,185.832,288.3,371.665,185.832,371.665m0-357.244c-94.515,0-171.407,76.9-171.407,171.412S91.317,357.239,185.832,357.239s171.412-76.891,171.412-171.407S280.348,14.42,185.832,14.42" transform="translate(-128.969 1940.254)" fill="#4a4a4a"/>
    <path id="Path_8" data-name="Path 8" d="M205.871,242.054h39.055L183.7,10.323H145.757L11.89,242.054H53.437l12.948-22.38H125.8l20.4-36.094H87.277l5.8-10.02h59.359l20.4-36.094H113.961L158.684,60.18Z" transform="translate(-76.736 1985.602)" fill="#4a4a4a"/>
  </g>
</svg>
